<?xml version="1.0" encoding="utf-8"?>
<!-- Generator: Adobe Illustrator 17.1.0, SVG Export Plug-In . SVG Version: 6.00 Build 0)  -->
<!DOCTYPE svg PUBLIC "-//W3C//DTD SVG 1.1//EN" "http://www.w3.org/Graphics/SVG/1.1/DTD/svg11.dtd">
<svg version="1.1" id="Í_xBC__xB2_ã_x5F_1" xmlns="http://www.w3.org/2000/svg" xmlns:xlink="http://www.w3.org/1999/xlink"
	 x="0px" y="0px" viewBox="0 0 595.3 59.7" enable-background="new 0 0 595.3 59.7" xml:space="preserve">
<path fill-rule="evenodd" clip-rule="evenodd" fill="#C1B577" d="M41,25.2c1.9-1.4,5.3-0.8,5.5-6c0.1-2.8-3.8-5.1-5-2.2
	c-0.6,1.5,1.2,2.7,2,1.7c0.1-0.2,0.1-0.6,0.2-0.2c0.3,0.9-0.4,1-0.4,1.2c0,0,0,0.1,0,0.1c0.8,0.7,1-0.7,1.1-0.3
	c0.3,2.1-3.2,1.2-4.2,6.1C40,26.7,40.5,25.5,41,25.2L41,25.2z M300.9,27c1.6,0,2.9,1.3,2.9,2.9c0,1.6-1.3,2.9-2.9,2.9
	c-1.6,0-2.9-1.3-2.9-2.9C298.1,28.3,299.3,27,300.9,27L300.9,27z M292.5,27c1.6,0,2.9,1.3,2.9,2.9c0,1.6-1.3,2.9-2.9,2.9
	c-1.6,0-2.9-1.3-2.9-2.9C289.6,28.3,290.9,27,292.5,27L292.5,27z M309.4,27c1.6,0,2.9,1.3,2.9,2.9c0,1.6-1.3,2.9-2.9,2.9
	c-1.6,0-2.9-1.3-2.9-2.9C306.5,28.3,307.8,27,309.4,27L309.4,27z M300.9,18.5c1.6,0,2.9,1.3,2.9,2.9c0,1.6-1.3,2.9-2.9,2.9
	c-1.6,0-2.9-1.3-2.9-2.9C298.1,19.8,299.3,18.5,300.9,18.5L300.9,18.5z M300.9,35.4c1.6,0,2.9,1.3,2.9,2.9c0,1.6-1.3,2.9-2.9,2.9
	c-1.6,0-2.9-1.3-2.9-2.9C298.1,36.7,299.3,35.4,300.9,35.4L300.9,35.4z M555.5,28.5H317.4c0.2,0.4,0.3,0.8,0.3,1.3s-0.1,0.9-0.3,1.3
	h238.1C555.6,30.4,555.6,29.1,555.5,28.5L555.5,28.5z M554.2,25.2c-1.9-1.4-5.3-0.8-5.5-6c-0.1-2.8,3.8-5.1,5-2.2
	c0.6,1.5-1.2,2.7-2,1.7c-0.1-0.2-0.1-0.6-0.2-0.2c-0.3,0.9,0.4,1,0.4,1.2c0,0,0,0.1-0.1,0.1c-0.8,0.7-1-0.7-1.1-0.3
	c-0.3,2.1,3.2,1.2,4.2,6.1C555.3,26.7,554.7,25.5,554.2,25.2L554.2,25.2z M548.3,32.2c-15.6,0-9.8,10.2-5.6,7.7
	c2.2-1.3,1-3.7-0.9-2.9c-0.3,0.1-0.7,0.6-0.6,0.1c0.5-1.1,1.6-0.9,1.7-1.1c0,0,0-0.1,0-0.1c-0.4-1.2-2,0.3-1.7-0.2
	C543,32.9,559.5,32.2,548.3,32.2L548.3,32.2z M548.3,27.5c-15.6,0-9.8-10.2-5.6-7.7c2.2,1.3,1,3.7-0.9,2.9c-0.3-0.1-0.7-0.6-0.6-0.1
	c0.5,1.1,1.6,0.9,1.7,1.1c0,0,0,0.1,0,0.1c-0.4,1.2-2-0.2-1.7,0.2C543,26.8,559.5,27.5,548.3,27.5L548.3,27.5z M559.6,32
	c-0.3-0.4-0.5-1.2-0.5-2.2h33.6c0,0.1-0.1,0.1-0.2,0.2c-2.2,1-3.8,4.1-8.3,2.4c-1.1-0.4-1.1,0.9,0.6,0.9c2.2,0-2.4,3.8-6.3,2.1
	c-3-1.2-4.6-3.7-8-4.6C564,29.3,559.9,32.5,559.6,32L559.6,32z M559.6,27.7c-0.3,0.4-0.5,1.2-0.5,2.2h33.6c0-0.1-0.1-0.1-0.2-0.2
	c-2.2-1-3.8-4.1-8.3-2.4c-1.1,0.4-1.1-0.9,0.6-0.9c2.2,0-2.4-3.8-6.3-2.1c-3,1.2-4.6,3.7-8,4.6C564,30.4,559.9,27.2,559.6,27.7
	L559.6,27.7z M566.2,32.2c7.9,0,10.6,7.6,8.5,10.9c-2,3.2-4.1,2.3-8.3,2.5c-2.7,0.1-4.4,1.9-4.4,1.4c0.3-3.9,4.5-4.4,6.3-6.8
	c3.6-5-5.3-6.6-6.1-5C561.7,36.2,556.7,32.2,566.2,32.2L566.2,32.2z M566.2,27.5c7.9,0,10.6-7.6,8.5-10.9c-2-3.2-4.1-2.3-8.3-2.5
	c-2.7-0.1-4.4-1.9-4.4-1.4c0.3,3.9,4.5,4.4,6.3,6.8c3.6,5-5.3,6.6-6.1,5C561.7,23.5,556.7,27.5,566.2,27.5L566.2,27.5z M558,29.8
	c0.1,3.1,2.5,5.8,1.5,8.4c-0.4,1.2-3.1,2.2-3.8-0.1c-0.6-2,1-2.4,1-8.3H558L558,29.8z M558,29.8c0.1-3.1,2.5-5.8,1.5-8.4
	c-0.4-1.2-3.1-2.2-3.8,0.1c-0.6,2,1,2.4,1,8.3H558L558,29.8z M554.2,34.5c-1.9,1.4-5.3,0.8-5.5,6c-0.1,2.8,3.8,5.1,5,2.2
	c0.6-1.5-1.2-2.7-2-1.7c-0.1,0.2-0.1,0.6-0.2,0.2c-0.3-0.9,0.4-1,0.4-1.2c0,0,0,0-0.1-0.1c-0.8-0.7-1,0.7-1.1,0.3
	c-0.3-2.1,3.2-1.2,4.2-6.1C555.3,33,554.7,34.2,554.2,34.5L554.2,34.5z M39.8,28.5h244.7c-0.2,0.4-0.3,0.8-0.3,1.3s0.1,0.9,0.3,1.3
	H39.8C39.7,30.4,39.7,29.1,39.8,28.5L39.8,28.5z M47,32.2c15.6,0,9.8,10.2,5.6,7.7c-2.2-1.3-1-3.7,0.9-2.9c0.3,0.1,0.7,0.6,0.6,0.1
	c-0.5-1.1-1.6-0.9-1.7-1.1c0,0,0-0.1,0-0.1c0.4-1.2,2,0.3,1.7-0.2C52.3,32.9,35.8,32.2,47,32.2L47,32.2z M47,27.5
	c15.6,0,9.8-10.2,5.6-7.7c-2.2,1.3-1,3.7,0.9,2.9c0.3-0.1,0.7-0.6,0.6-0.1c-0.5,1.1-1.6,0.9-1.7,1.1c0,0,0,0.1,0,0.1
	c0.4,1.2,2-0.2,1.7,0.2C52.3,26.8,35.8,27.5,47,27.5L47,27.5z M35.7,32c0.3-0.4,0.5-1.2,0.5-2.2H2.7c0,0.1,0.1,0.1,0.2,0.2
	c2.1,1,3.8,4.1,8.3,2.4c1.1-0.4,1.1,0.9-0.6,0.9c-2.2,0,2.4,3.8,6.3,2.1c3-1.2,4.6-3.7,8-4.6C31.3,29.3,35.3,32.5,35.7,32L35.7,32z
	 M35.7,27.7c0.3,0.4,0.5,1.2,0.5,2.2H2.7c0-0.1,0.1-0.1,0.2-0.2c2.1-1,3.8-4.1,8.3-2.4c1.1,0.4,1.1-0.9-0.6-0.9
	c-2.2,0,2.4-3.8,6.3-2.1c3,1.2,4.6,3.7,8,4.6C31.3,30.4,35.3,27.2,35.7,27.7L35.7,27.7z M29.1,32.2c-7.9,0-10.6,7.6-8.5,10.9
	c1.9,3.2,4.1,2.3,8.3,2.5c2.7,0.1,4.4,1.9,4.4,1.4c-0.3-3.9-4.5-4.4-6.3-6.8c-3.6-5,5.3-6.6,6.1-5C33.5,36.2,38.6,32.2,29.1,32.2
	L29.1,32.2z M29.1,27.5c-7.9,0-10.6-7.6-8.5-10.9c1.9-3.2,4.1-2.3,8.3-2.5c2.7-0.1,4.4-1.9,4.4-1.4C33,16.5,28.7,17,27,19.5
	c-3.6,5,5.3,6.6,6.1,5C33.5,23.5,38.6,27.5,29.1,27.5L29.1,27.5z M37.3,29.8c-0.1,3.1-2.5,5.8-1.5,8.4c0.4,1.2,3.1,2.2,3.8-0.1
	c0.6-2-1-2.4-1-8.3H37.3L37.3,29.8z M37.3,29.8c-0.1-3.1-2.5-5.8-1.5-8.4c0.4-1.2,3.1-2.2,3.8,0.1c0.6,2-1,2.4-1,8.3H37.3L37.3,29.8
	z M41,34.5c1.9,1.4,5.3,0.8,5.5,6c0.1,2.8-3.8,5.1-5,2.2c-0.6-1.5,1.2-2.7,2-1.7c0.1,0.2,0.1,0.6,0.2,0.2c0.3-0.9-0.4-1-0.4-1.2
	c0,0,0,0,0-0.1c0.8-0.7,1,0.7,1.1,0.3c0.3-2.1-3.2-1.2-4.2-6.1C40,33,40.5,34.2,41,34.5L41,34.5z"/>
</svg>
